<svg width="20" height="20" viewBox="0 0 20 20" fill="none" xmlns="http://www.w3.org/2000/svg">
<path d="M10 0C6.14273 0 3 3.14273 3 7C3 8.73186 3.6363 10.3218 4.67969 11.543V11.5439H4.68066C4.68066 11.5439 7.57455 14.9333 8.64941 15.959C9.39904 16.6741 10.5997 16.6737 11.3496 15.959C12.5645 14.8005 15.3184 11.5453 15.3203 11.543L15.3213 11.541C16.3644 10.32 17 8.73108 17 7C17 3.14273 13.8573 0 10 0ZM10 1.5C13.0467 1.5 15.5 3.95327 15.5 7C15.5 8.36614 15.0027 9.6056 14.1797 10.5684V10.5693H14.1787C14.1787 10.5693 11.3161 13.9179 10.3145 14.873C10.1293 15.0497 9.86973 15.0497 9.68457 14.873C8.85774 14.084 5.82155 10.5709 5.81934 10.5684L5.81836 10.5664C4.99663 9.60381 4.5 8.36536 4.5 7C4.5 3.95327 6.95327 1.5 10 1.5ZM10 4C9.0625 4 8.26441 4.37857 7.75195 4.95508C7.2395 5.53159 7 6.27083 7 7C7 7.72917 7.2395 8.46841 7.75195 9.04492C8.26441 9.62143 9.0625 10 10 10C10.9375 10 11.7356 9.62143 12.248 9.04492C12.7605 8.46841 13 7.72917 13 7C13 6.27083 12.7605 5.53159 12.248 4.95508C11.7356 4.37857 10.9375 4 10 4ZM10 5.5C10.5625 5.5 10.8894 5.68393 11.127 5.95117C11.3645 6.21841 11.5 6.60417 11.5 7C11.5 7.39583 11.3645 7.78159 11.127 8.04883C10.8894 8.31607 10.5625 8.5 10 8.5C9.4375 8.5 9.11059 8.31607 8.87305 8.04883C8.6355 7.78159 8.5 7.39583 8.5 7C8.5 6.60417 8.6355 6.21841 8.87305 5.95117C9.11059 5.68393 9.4375 5.5 10 5.5ZM4.38574 12.7207C2.11324 13.3772 0.5 14.4765 0.5 16C0.5 18.626 5.279 20 10 20C14.721 20 19.5 18.626 19.5 16C19.5 14.477 17.8877 13.3787 15.6162 12.7217C15.3272 13.0497 14.9316 13.4969 14.4961 13.9824C16.7091 14.5029 18 15.3455 18 16C18 17.0195 14.8835 18.5 10 18.5C5.1165 18.5 2 17.0195 2 16C2 15.345 3.29327 14.501 5.50977 13.9805C5.07627 13.498 4.67774 13.0502 4.38574 12.7207Z" fill="#E71F34"/>
</svg>
